<svg xmlns="http://www.w3.org/2000/svg" width="120" height="41" fill-rule="evenodd"><path d="M67.47 18.954h-8.22V11.44h-2.905v18.075h2.905v-8.08h8.22v8.08h2.917V11.44H67.47v7.514zm10.552 0v-5.02H86.7V11.44H75.117v18.075H86.83v-2.482h-8.807v-5.596h7.582v-2.482h-7.582zM101.2 11.44l-4.785 13.8-4.762-13.8H88.51l6.698 18.075h2.46l6.7-18.075H101.2zM120 21.04v-1.104c0-1.745-.273-3.277-.82-4.597-.553-1.34-1.348-2.364-2.38-3.073s-2.23-1.067-3.58-1.067c-1.33 0-2.515.36-3.55 1.08s-1.83 1.747-2.39 3.09c-.553 1.325-.83 2.848-.83 4.57v1.26c.015 1.693.302 3.182.86 4.472.564 1.304 1.362 2.312 2.388 3.02s2.214 1.067 3.543 1.067c1.36 0 2.553-.355 3.576-1.06s1.81-1.724 2.362-3.054c.546-1.313.82-2.845.82-4.598zm-2.902-1.128v1.296c-.02 1.93-.377 3.393-1.052 4.386-.644.948-1.53 1.4-2.71 1.4-1.17 0-2.064-.5-2.735-1.502-.702-1.058-1.06-2.544-1.06-4.463v-1.284c.02-1.874.385-3.32 1.08-4.338.663-.974 1.545-1.446 2.695-1.446 1.187 0 2.084.473 2.743 1.446.688 1.016 1.042 2.512 1.042 4.495z" fill="#424672" fill-rule="nonzero"/><ellipse fill="#3d7fe0" cx="17.79" cy="11.102" rx="2.973" ry="3.019"/><ellipse fill="#2bbae7" cx="27.636" cy="13.05" rx="2.973" ry="3.019"/><ellipse fill="#4abc90" cx="30.755" cy="22.983" rx="2.973" ry="3.019"/><ellipse fill="#ffd101" cx="23.834" cy="30.19" rx="2.973" ry="3.019"/><ellipse fill="#ff7d42" cx="13.794" cy="27.95" rx="2.973" ry="3.019"/><ellipse fill="#ff5072" cx="10.772" cy="17.822" rx="2.973" ry="3.019"/><ellipse fill="#1cccc4" cx="20.91" cy="20.695" rx="3.753" ry="3.749"/><ellipse fill="#3d7fe0" cx="15.305" cy="2.386" rx="2.437" ry="2.386"/><ellipse fill="#2bbae7" cx="33.631" cy="6.184" rx="2.437" ry="2.386"/><ellipse fill="#4abc90" cx="39.09" cy="25.467" rx="2.437" ry="2.386"/><ellipse fill="#ffd101" cx="26.125" cy="38.614" rx="2.437" ry="2.386"/><ellipse fill="#ff7d42" cx="7.311" cy="34.232" rx="2.437" ry="2.386"/><ellipse fill="#ff5072" cx="2.437" cy="16.215" rx="2.437" ry="2.386"/></svg>